<svg width="60" height="60" viewBox="0 0 60 60" fill="none" xmlns="http://www.w3.org/2000/svg">
<circle cx="30" cy="30" r="29" fill="white" stroke="#055B1D" stroke-width="2"/>
<path fill-rule="evenodd" clip-rule="evenodd" d="M25.556 50H34.444C40.686 50 43.808 50 46.05 48.3667C47.0174 47.6622 47.8505 46.7531 48.502 45.6911C50 43.2467 50 39.84 50 33.0312C50 26.2201 50 22.8156 48.502 20.3712C47.8506 19.3092 47.0174 18.4001 46.05 17.6956C44.61 16.6445 42.806 16.269 40.044 16.1356C38.726 16.1356 37.592 15.0468 37.334 13.6356C37.1368 12.602 36.6245 11.6757 35.8837 11.0133C35.1429 10.3509 34.2189 9.99301 33.268 10.0001H26.732C24.756 10.0001 23.054 11.5223 22.666 13.6356C22.408 15.0468 21.274 16.1356 19.956 16.1356C17.196 16.269 15.392 16.6468 13.95 17.6956C12.9832 18.4002 12.1507 19.3094 11.5 20.3712C10 22.8156 10 26.2201 10 33.0312C10 39.84 10 43.2445 11.498 45.6911C12.146 46.7489 12.978 47.6578 13.95 48.3667C16.192 50 19.314 50 25.556 50ZM30 23.9401C25.398 23.9401 21.666 28.0089 21.666 33.0289C21.666 38.0511 25.398 42.1222 30 42.1222C34.602 42.1222 38.334 38.0511 38.334 33.0312C38.334 28.0089 34.602 23.9401 30 23.9401ZM30 27.5756C27.24 27.5756 25 30.0178 25 33.0312C25 36.0423 27.24 38.4845 30 38.4845C32.76 38.4845 35 36.0423 35 33.0312C35 30.0178 32.76 27.5756 30 27.5756ZM39.444 25.7578C39.444 24.7534 40.19 23.9401 41.112 23.9401H43.332C44.252 23.9401 45 24.7534 45 25.7578C44.9958 26.2443 44.8179 26.709 44.5056 27.0498C44.1932 27.3906 43.7718 27.5798 43.334 27.5756H41.112C40.8951 27.578 40.6798 27.5328 40.4786 27.4427C40.2773 27.3526 40.094 27.2194 39.9392 27.0506C39.7843 26.8818 39.6608 26.6807 39.5759 26.4589C39.4909 26.2371 39.4461 25.9989 39.444 25.7578Z" fill="#055B1D"/>
</svg>
