<svg width="15" height="16" viewBox="0 0 15 16" fill="none" xmlns="http://www.w3.org/2000/svg">
<path d="M4.375 1.66732C4.375 1.4463 4.44085 1.23434 4.55806 1.07806C4.67527 0.921782 4.83424 0.833984 5 0.833984H14.375C14.5408 0.833984 14.6997 0.921782 14.8169 1.07806C14.9342 1.23434 15 1.4463 15 1.66732C15 1.88833 14.9342 2.10029 14.8169 2.25657C14.6997 2.41285 14.5408 2.50065 14.375 2.50065H5C4.83424 2.50065 4.67527 2.41285 4.55806 2.25657C4.44085 2.10029 4.375 1.88833 4.375 1.66732ZM14.375 7.50065H5C4.83424 7.50065 4.67527 7.58845 4.55806 7.74473C4.44085 7.90101 4.375 8.11297 4.375 8.33398C4.375 8.555 4.44085 8.76696 4.55806 8.92324C4.67527 9.07952 4.83424 9.16732 5 9.16732H14.375C14.5408 9.16732 14.6997 9.07952 14.8169 8.92324C14.9342 8.76696 15 8.555 15 8.33398C15 8.11297 14.9342 7.90101 14.8169 7.74473C14.6997 7.58845 14.5408 7.50065 14.375 7.50065ZM14.375 14.1673H5C4.83424 14.1673 4.67527 14.2551 4.55806 14.4114C4.44085 14.5677 4.375 14.7796 4.375 15.0007C4.375 15.2217 4.44085 15.4336 4.55806 15.5899C4.67527 15.7462 4.83424 15.834 5 15.834H14.375C14.5408 15.834 14.6997 15.7462 14.8169 15.5899C14.9342 15.4336 15 15.2217 15 15.0007C15 14.7796 14.9342 14.5677 14.8169 14.4114C14.6997 14.2551 14.5408 14.1673 14.375 14.1673ZM1.875 0.833984H0.625C0.45924 0.833984 0.300269 0.921782 0.183058 1.07806C0.0658481 1.23434 0 1.4463 0 1.66732C0 1.88833 0.0658481 2.10029 0.183058 2.25657C0.300269 2.41285 0.45924 2.50065 0.625 2.50065H1.875C2.04076 2.50065 2.19973 2.41285 2.31694 2.25657C2.43415 2.10029 2.5 1.88833 2.5 1.66732C2.5 1.4463 2.43415 1.23434 2.31694 1.07806C2.19973 0.921782 2.04076 0.833984 1.875 0.833984ZM1.875 7.50065H0.625C0.45924 7.50065 0.300269 7.58845 0.183058 7.74473C0.0658481 7.90101 0 8.11297 0 8.33398C0 8.555 0.0658481 8.76696 0.183058 8.92324C0.300269 9.07952 0.45924 9.16732 0.625 9.16732H1.875C2.04076 9.16732 2.19973 9.07952 2.31694 8.92324C2.43415 8.76696 2.5 8.555 2.5 8.33398C2.5 8.11297 2.43415 7.90101 2.31694 7.74473C2.19973 7.58845 2.04076 7.50065 1.875 7.50065ZM1.875 14.1673H0.625C0.45924 14.1673 0.300269 14.2551 0.183058 14.4114C0.0658481 14.5677 0 14.7796 0 15.0007C0 15.2217 0.0658481 15.4336 0.183058 15.5899C0.300269 15.7462 0.45924 15.834 0.625 15.834H1.875C2.04076 15.834 2.19973 15.7462 2.31694 15.5899C2.43415 15.4336 2.5 15.2217 2.5 15.0007C2.5 14.7796 2.43415 14.5677 2.31694 14.4114C2.19973 14.2551 2.04076 14.1673 1.875 14.1673Z" fill="black"/>
</svg>
