<svg width="25" height="26" viewBox="0 0 25 26" fill="none" xmlns="http://www.w3.org/2000/svg">
<path fill-rule="evenodd" clip-rule="evenodd" d="M17.044 9.99858C17.044 11.2041 16.5651 12.3603 15.7127 13.2127C14.8603 14.0651 13.7041 14.544 12.4986 14.544C11.2931 14.544 10.1369 14.0651 9.28446 13.2127C8.43202 12.3603 7.95313 11.2041 7.95312 9.99858C7.95313 8.79305 8.43202 7.6369 9.28446 6.78446C10.1369 5.93202 11.2931 5.45313 12.4986 5.45312C13.7041 5.45313 14.8603 5.93202 15.7127 6.78446C16.5651 7.6369 17.044 8.79305 17.044 9.99858ZM14.7713 9.99858C14.7713 10.6013 14.5319 11.1794 14.1056 11.6056C13.6794 12.0319 13.1013 12.2713 12.4986 12.2713C11.8958 12.2713 11.3177 12.0319 10.8915 11.6056C10.4653 11.1794 10.2259 10.6013 10.2259 9.99858C10.2259 9.39582 10.4653 8.81774 10.8915 8.39152C11.3177 7.9653 11.8958 7.72585 12.4986 7.72585C13.1013 7.72585 13.6794 7.9653 14.1056 8.39152C14.5319 8.81774 14.7713 9.39582 14.7713 9.99858Z" fill="black"/>
<path fill-rule="evenodd" clip-rule="evenodd" d="M12.5 0.90625C5.59659 0.90625 0 6.50284 0 13.4062C0 20.3097 5.59659 25.9062 12.5 25.9062C19.4034 25.9062 25 20.3097 25 13.4062C25 6.50284 19.4034 0.90625 12.5 0.90625ZM2.27273 13.4062C2.27273 15.7812 3.08295 17.9676 4.44091 19.704C5.39458 18.4516 6.62489 17.4366 8.03572 16.7384C9.44655 16.0402 10.9997 15.6776 12.5739 15.679C14.1276 15.6775 15.6613 16.0307 17.0579 16.7117C18.4545 17.3927 19.6772 18.3834 20.633 19.6085C21.6176 18.3172 22.2805 16.8099 22.5669 15.2115C22.8534 13.613 22.755 11.9694 22.2801 10.4165C21.8052 8.86356 20.9673 7.44608 19.8358 6.28129C18.7043 5.11651 17.3116 4.23791 15.7732 3.71819C14.2347 3.19847 12.5945 3.05258 10.9885 3.29258C9.38241 3.53258 7.85658 4.15158 6.53724 5.09836C5.21789 6.04513 4.14297 7.29247 3.4014 8.73715C2.65983 10.1818 2.27293 11.7824 2.27273 13.4062ZM12.5 23.6335C10.1522 23.637 7.8753 22.8294 6.05455 21.3472C6.78742 20.298 7.76288 19.4414 8.89795 18.8502C10.033 18.259 11.2941 17.9508 12.5739 17.9517C13.8377 17.9507 15.0835 18.2512 16.2079 18.8283C17.3322 19.4054 18.3027 20.2425 19.0386 21.2699C17.2037 22.8002 14.8893 23.6369 12.5 23.6335Z" fill="black"/>
</svg>
